<mxfile host="app.diagrams.net" modified="2023-12-06T07:55:48.147Z" agent="Mozilla/5.0 (Macintosh; Intel Mac OS X 10_15_7) AppleWebKit/537.36 (KHTML, like Gecko) Chrome/119.0.0.0 Safari/537.36" version="22.1.5" etag="Sifheo7gvm9-5oPUpkL_" type="github">
  <diagram name="Page-1" id="IufPeSYqXbB1JuDV5rq3">
    <mxGraphModel>
      <root>
        <mxCell id="0" />
        <mxCell id="1" parent="0" />
      </root>
    </mxGraphModel>
  </diagram>
</mxfile>
